<svg version="1.2" xmlns="http://www.w3.org/2000/svg" viewBox="295 479.99999999999994 2057 461.00000000000006" width="2057" height="462">
	<style>
		.s0 { fill: #fefeff } 
		.s1 { fill: #f5d354 } 
	</style>
	<g id="Layer 1">
		<g id="Folder 1">
			<path class="s0" d="m557.25 873.71l-102.72 57.62q-0.3 0.16-0.64 0.16-0.33-0.01-0.63-0.18-0.29-0.17-0.46-0.46-0.16-0.3-0.16-0.64v-196.37q0-0.25-0.1-0.49-0.1-0.23-0.28-0.41-0.18-0.18-0.41-0.28-0.23-0.09-0.49-0.09h-148.36q-0.25 0-0.48-0.1-0.24-0.1-0.42-0.28-0.18-0.18-0.27-0.41-0.1-0.23-0.1-0.49v-236.28q0-0.25 0.1-0.49 0.09-0.23 0.27-0.41 0.18-0.18 0.42-0.28 0.23-0.09 0.48-0.09h100.74q0.25 0 0.49 0.09 0.23 0.1 0.41 0.28 0.18 0.18 0.28 0.41 0.09 0.24 0.09 0.49v135.87q0 0.25 0.1 0.48 0.1 0.24 0.28 0.42 0.18 0.18 0.41 0.27 0.23 0.1 0.49 0.1h150.34q0.25 0 0.49 0.1 0.23 0.09 0.41 0.27 0.18 0.18 0.27 0.42 0.1 0.23 0.1 0.48v239.17q0 0.17-0.04 0.34-0.05 0.16-0.13 0.31-0.09 0.14-0.21 0.26-0.12 0.12-0.27 0.21z"/>
			<path class="s1" d="m612.51 590.35h-157.31q-0.25 0-0.47-0.09-0.23-0.1-0.4-0.27-0.17-0.17-0.26-0.4-0.1-0.22-0.1-0.46v-94.33q0-0.24 0.1-0.47 0.09-0.22 0.26-0.39 0.17-0.18 0.4-0.27 0.22-0.09 0.47-0.09h261q0.24 0 0.47 0.09 0.22 0.09 0.39 0.27 0.17 0.17 0.27 0.39 0.09 0.23 0.09 0.47v290.1q0 0.16-0.04 0.32-0.04 0.15-0.13 0.29-0.08 0.14-0.19 0.26-0.12 0.11-0.26 0.19l-101.25 56.78q-0.28 0.15-0.61 0.15-0.32 0-0.6-0.16-0.28-0.17-0.45-0.45-0.16-0.28-0.16-0.61c0-0.49 0-250.1 0-250.1 0 0.16-0.03-0.32-0.09-0.47q-0.1-0.22-0.27-0.39-0.17-0.18-0.39-0.27-0.23-0.09-0.47-0.09z"/>
		</g>
		<g id="Folder 2">
			<path class="s1" d="m2035.16 640.24q34.16-26.23 75.83-9.67c32.34 12.86 51.41 44.08 49.84 79.6q-2.03 45.36-43.96 70.15-17.65 10.41-42.95 8.99-22.49-1.27-40.52-15.62-0.33-0.26-0.75-0.31-0.42-0.05-0.81 0.13-0.38 0.19-0.61 0.55-0.23 0.36-0.23 0.79v7.48q0 0.83-0.32 1.6-0.32 0.77-0.91 1.36-0.6 0.58-1.37 0.9-0.77 0.32-1.61 0.32h-46.77q-0.28 0-0.53-0.11-0.26-0.1-0.45-0.3-0.2-0.19-0.3-0.45-0.11-0.25-0.11-0.53v-223.44q0-0.66 0.25-1.28 0.26-0.61 0.73-1.08 0.47-0.46 1.08-0.72 0.61-0.25 1.27-0.25h49.8q0.44 0 0.84 0.16 0.39 0.17 0.7 0.47 0.31 0.31 0.47 0.71 0.17 0.4 0.17 0.83v79.12q0 0.21 0.12 0.4 0.11 0.18 0.31 0.27 0.19 0.1 0.4 0.08 0.22-0.02 0.39-0.15zm71.27 66.03c0-4.94-0.97-9.84-2.87-14.41-1.89-4.57-4.66-8.72-8.16-12.22-3.5-3.5-7.65-6.27-12.22-8.16-4.57-1.9-9.47-2.87-14.41-2.87-4.95 0-9.85 0.97-14.42 2.87-4.57 1.89-8.72 4.66-12.22 8.16-3.5 3.5-6.27 7.65-8.16 12.22-1.9 4.57-2.87 9.47-2.87 14.41 0 4.95 0.97 9.85 2.87 14.42 1.89 4.57 4.66 8.72 8.16 12.22 3.5 3.49 7.65 6.27 12.22 8.16 4.57 1.89 9.47 2.87 14.42 2.87 4.94 0 9.84-0.98 14.41-2.87 4.57-1.89 8.72-4.67 12.22-8.16 3.5-3.5 6.27-7.65 8.16-12.22 1.9-4.57 2.87-9.47 2.87-14.42z"/>
			<path class="s0" d="m877.11 654.34v130.35q0 0.37-0.14 0.71-0.14 0.34-0.4 0.61-0.26 0.26-0.61 0.4-0.34 0.14-0.71 0.14h-53.34q-0.27 0-0.51-0.1-0.25-0.1-0.44-0.29-0.19-0.19-0.29-0.44-0.11-0.25-0.11-0.51v-221.29q0.01-0.31 0.12-0.6 0.12-0.28 0.34-0.5 0.22-0.22 0.5-0.34 0.29-0.12 0.6-0.12h44.12q0.53 0 1.04 0.13 0.51 0.13 0.98 0.37 0.46 0.25 0.86 0.6 0.39 0.35 0.68 0.79 9.63 14.26 18.76 25.24c18.29 21.97 42.91 53.13 83.62 103.88q0.56 0.71 1.36 0.4 0.48-0.21 0.5-0.77 0.62-37.56 0.08-128.69 0-0.37 0.15-0.72 0.14-0.35 0.4-0.61 0.27-0.27 0.62-0.41 0.34-0.14 0.72-0.14h53.15q0.36 0 0.69 0.13 0.33 0.14 0.58 0.39 0.26 0.26 0.39 0.59 0.14 0.33 0.14 0.69v221.02q0 0.24-0.09 0.47-0.1 0.23-0.28 0.41-0.18 0.17-0.41 0.26-0.23 0.1-0.48 0.1h-46.13q-0.34 0-0.67-0.08-0.32-0.09-0.62-0.25-0.29-0.16-0.53-0.4-0.25-0.23-0.42-0.51-7.85-12.36-16.38-22.26-15.74-18.31-15.88-19.32 0-0.04-70.82-89.72-0.13-0.16-0.32-0.21-0.19-0.06-0.38 0.01-0.19 0.06-0.31 0.23-0.12 0.16-0.13 0.36z"/>
			<path class="s1" d="m1677.66 737.27h90.64q0.39 0 0.75 0.15 0.36 0.15 0.64 0.43 0.27 0.27 0.42 0.63 0.15 0.37 0.15 0.76v45.47q0 0.39-0.15 0.75-0.15 0.36-0.42 0.64-0.28 0.28-0.64 0.43-0.36 0.15-0.75 0.15h-147.31q-0.39 0-0.75-0.15-0.36-0.15-0.64-0.43-0.28-0.28-0.43-0.64-0.15-0.36-0.15-0.75v-220.38q0-0.39 0.15-0.75 0.15-0.36 0.43-0.64 0.28-0.28 0.64-0.43 0.36-0.15 0.75-0.15h52.74q0.39 0 0.75 0.15 0.36 0.15 0.64 0.43 0.28 0.28 0.43 0.64 0.15 0.36 0.15 0.75v170.97q0 0.39 0.15 0.76 0.15 0.36 0.42 0.63 0.28 0.28 0.64 0.43 0.36 0.15 0.75 0.15z"/>
			<path class="s0" d="m1209.74 766.01c-24.62 21.49-58.23 26.73-89.89 22.84-29.9-3.66-57.5-23.94-68.64-52.18-12.4-31.49-4.16-64.87 21.14-88.75 37.36-35.26 107.06-33 136.27 11.83q14.43 22.15 13.65 49.55-0.21 7.12-2.78 12.65-0.1 0.23-0.26 0.41-0.16 0.19-0.37 0.33-0.21 0.13-0.45 0.2-0.24 0.07-0.49 0.07h-115.23q-0.33 0-0.61 0.15-0.29 0.15-0.48 0.42-0.18 0.27-0.22 0.59-0.04 0.32 0.07 0.62 4.1 11.25 12.11 16.57c22.13 14.7 49.8 8.34 70.03-6.86q0.31-0.23 0.68-0.34 0.37-0.1 0.76-0.08 0.38 0.03 0.73 0.19 0.35 0.17 0.62 0.44 15.6 15.97 23.69 29.26 0.15 0.25 0.21 0.53 0.06 0.29 0.01 0.58-0.05 0.28-0.19 0.54-0.14 0.25-0.36 0.44zm-42.03-76.05q0.35 0 0.67-0.15 0.32-0.15 0.55-0.42 0.23-0.27 0.33-0.61 0.09-0.34 0.04-0.69c-2.79-18.2-22.59-27.91-39.38-24.45q-21.76 4.49-29.14 24.18-0.13 0.37-0.09 0.75 0.05 0.39 0.27 0.71 0.22 0.31 0.56 0.5 0.35 0.17 0.73 0.18z"/>
			<path class="s0" d="m1480.21 722.98q-0.32 0-0.6 0.15-0.28 0.16-0.46 0.42-0.17 0.27-0.2 0.59-0.03 0.33 0.1 0.62c5.77 13.36 15.3 21.58 30.1 24 20.26 3.32 36.1-4.14 53.49-13.79q0.28-0.16 0.59-0.21 0.32-0.05 0.64 0 0.32 0.06 0.6 0.22 0.28 0.16 0.49 0.41l23.81 28.2q0.26 0.31 0.39 0.7 0.12 0.4 0.08 0.8-0.04 0.41-0.23 0.77-0.19 0.37-0.51 0.63c-22.57 18.55-50.13 24.76-78.79 23.46-36.25-1.66-69.63-21.72-81.04-57.44-15.3-47.92 12.57-92.99 60.11-105.44 50.83-13.29 103.88 13.13 111.81 67.46q1.83 12.47-0.43 25.93-0.09 0.53-0.36 0.99-0.27 0.47-0.67 0.82-0.41 0.34-0.92 0.53-0.5 0.18-1.03 0.18zm-0.81-32.98l68.04 0.12q0.02 0 0.03 0 0.02-0.01 0.03-0.02 0.01-0.01 0.02-0.03 0-0.01 0-0.03v-0.17c0.01-3.52-0.86-7.01-2.56-10.27-1.7-3.26-4.19-6.22-7.33-8.72-3.15-2.5-6.88-4.48-10.99-5.84-4.11-1.36-8.52-2.06-12.97-2.06h-0.41c-4.46-0.01-8.86 0.68-12.98 2.02-4.11 1.34-7.85 3.31-11 5.79-3.15 2.49-5.65 5.44-7.36 8.7-1.71 3.25-2.6 6.74-2.6 10.26v0.16q0 0.02 0 0.04 0.01 0.01 0.02 0.02 0.01 0.02 0.03 0.02 0.01 0.01 0.03 0.01z"/>
			<path class="s1" d="m2285.42 677.68q-0.2 0.23-0.46 0.38-0.26 0.15-0.56 0.19-0.3 0.05-0.59-0.01-0.29-0.07-0.55-0.23-9.38-5.99-16.5-9.59-17.04-8.65-34.93-5.09c-7.75 1.53-15.26 11.43-5.45 16.56q3.96 2.07 14.89 4.52c23.63 5.3 58.37 12.34 66.03 40.19 2.43 8.78 2.86 24.08-2.77 33.73q-13.9 23.81-42.68 29.42c-32.73 6.36-70.9-0.06-97.5-22.11q-0.34-0.28-0.54-0.66-0.2-0.39-0.25-0.82-0.05-0.43 0.07-0.85 0.12-0.41 0.38-0.76l20.19-25.74q0.48-0.6 1.14-1 0.67-0.4 1.43-0.53 0.76-0.13 1.52 0.02 0.75 0.15 1.4 0.56c16.73 10.6 35.16 16.98 55.02 13.61 8.61-1.47 19.13-10.92 6.21-17.71q-6.36-3.33-13.58-4.97c-21.37-4.8-40.82-9.52-56.84-23.89-13.94-12.49-12.47-34.27-3.21-49.53 13.44-22.12 42.22-31.02 66.4-29.92q35.14 1.57 62.76 20.97 0.4 0.28 0.69 0.66 0.3 0.37 0.47 0.82 0.17 0.45 0.21 0.93 0.03 0.48-0.08 0.95-0.6 2.54-3.63 6.66-5.42 7.42-18.69 23.24z"/>
			<path class="s0" d="m1353.63 768.25c-2.26 0.89-6.42 4.45-9.96 6.11-40.92 19.11-94.92 2.13-109.93-43.16q-13.52-40.75 10.31-75.06c23.3-33.54 74.79-43.5 107.26-16.91q0.18 0.14 0.41 0.19 0.23 0.04 0.46-0.03 0.22-0.06 0.39-0.23 0.17-0.16 0.25-0.39l2.55-8.01q0.23-0.74 0.68-1.37 0.45-0.63 1.08-1.09 0.62-0.45 1.35-0.7 0.74-0.24 1.51-0.24h48.45q0.46 0 0.89 0.18 0.43 0.18 0.76 0.51 0.33 0.33 0.51 0.76 0.18 0.43 0.18 0.89 0.08 19.22 0.06 135.69 0 21.76-3.23 32.74c-9.88 33.52-41.72 54.58-75.41 58.47-27.62 3.17-56.49-1.16-80.94-14.85-8.04-4.49-13.03-6.93-18.2-11.74q-0.43-0.39-0.7-0.91-0.26-0.51-0.34-1.08-0.08-0.58 0.04-1.15 0.12-0.56 0.42-1.06 9.81-15.9 25.28-31.39 0.27-0.26 0.61-0.42 0.35-0.16 0.72-0.18 0.38-0.03 0.74 0.07 0.36 0.1 0.66 0.32 10.27 7.4 22.82 12.63c23.11 9.67 65.95 9.92 70.94-22.81q1.04-6.69 0.68-14.93-0.01-0.24-0.12-0.44-0.11-0.2-0.31-0.33-0.19-0.12-0.42-0.15-0.23-0.02-0.45 0.07zm3.12-65.55c-0.17-4.61-1.31-9.15-3.35-13.35-2.04-4.19-4.94-7.97-8.54-11.1-3.6-3.14-7.83-5.58-12.45-7.18-4.61-1.6-9.52-2.33-14.44-2.15-4.93 0.18-9.77 1.27-14.25 3.2-4.49 1.94-8.53 4.68-11.89 8.07-3.36 3.39-5.98 7.37-7.71 11.7-1.73 4.34-2.53 8.95-2.36 13.56 0.17 4.62 1.31 9.16 3.35 13.35 2.04 4.2 4.94 7.97 8.55 11.11 3.6 3.14 7.83 5.57 12.44 7.17 4.61 1.6 9.52 2.34 14.45 2.15 4.92-0.18 9.76-1.26 14.25-3.2 4.48-1.93 8.52-4.67 11.88-8.06 3.36-3.4 5.98-7.37 7.71-11.71 1.73-4.33 2.53-8.94 2.36-13.56z"/>
			<path class="s1" d="m1901.23 774.29q-0.02-0.24-0.16-0.44-0.14-0.2-0.36-0.3-0.22-0.1-0.47-0.08-0.24 0.02-0.44 0.16c-16.23 11.51-30.25 16.73-50.44 16.07q-30.75-1.06-53.55-23.65c-15.07-14.97-20.85-32.65-23.17-53.15-2.15-18.84 4.02-39.28 14.66-54.5q12.43-17.79 31.37-26.96c25.41-12.28 58.44-9.44 80.05 9.48q0.35 0.3 0.8 0.37 0.45 0.07 0.87-0.12 0.41-0.19 0.67-0.58 0.25-0.39 0.25-0.85v-9.91q0-0.47 0.18-0.91 0.18-0.43 0.51-0.76 0.34-0.34 0.77-0.52 0.43-0.17 0.9-0.18h49.06q0.47 0.01 0.9 0.18 0.43 0.18 0.77 0.52 0.33 0.33 0.51 0.76 0.18 0.44 0.18 0.91v154.11q0 0.45-0.17 0.86-0.17 0.42-0.48 0.74-0.31 0.32-0.72 0.5-0.4 0.17-0.85 0.18-18.57 0.46-44.58 0.06c-7.95-0.12-6.6-6.56-7.06-11.99zm0.46-67.66c0-4.94-0.98-9.83-2.87-14.39-1.89-4.57-4.66-8.71-8.15-12.2-3.49-3.5-7.63-6.27-12.2-8.16-4.56-1.89-9.45-2.86-14.39-2.86-4.94 0-9.82 0.97-14.39 2.86-4.56 1.89-8.7 4.66-12.2 8.16-3.49 3.49-6.26 7.63-8.15 12.2-1.89 4.56-2.86 9.45-2.86 14.39 0 4.93 0.97 9.82 2.86 14.38 1.89 4.57 4.66 8.71 8.15 12.2 3.5 3.5 7.64 6.27 12.2 8.16 4.57 1.89 9.45 2.86 14.39 2.86 4.94 0 9.83-0.97 14.39-2.86 4.57-1.89 8.71-4.66 12.2-8.16 3.49-3.49 6.26-7.63 8.15-12.2 1.89-4.56 2.87-9.45 2.87-14.38z"/>
		</g>
	</g>
</svg>